HIERARCHY
ROOT Hips
{
	OFFSET 0.000000 100.481300 0.000000
	CHANNELS 6 Xposition Yposition Zposition Xrotation Yrotation Zrotation 
	JOINT Spine
	{
		OFFSET -0.279200 12.230698 -2.892100
		CHANNELS 3 Xrotation Yrotation Zrotation
		JOINT Spine1
		{
			OFFSET -0.232667 10.192268 -1.242267
			CHANNELS 3 Xrotation Yrotation Zrotation
			JOINT Spine1_split
			{
				OFFSET -0.232667 10.192268 -1.242267
				CHANNELS 3 Xrotation Yrotation Zrotation
				JOINT Spine2
				{
					OFFSET -0.232667 10.192268 -1.242267
					CHANNELS 3 Xrotation Yrotation Zrotation
					JOINT Neck
					{
						OFFSET -0.418800 17.814194 8.416900
						CHANNELS 3 Xrotation Yrotation Zrotation
						JOINT Head
						{
							OFFSET 0.000000 7.031097 3.806800
							CHANNELS 3 Xrotation Yrotation Zrotation
							JOINT HeadTop_End
							{
								OFFSET 0.000000 24.646606 12.978600
								CHANNELS 3 Xrotation Yrotation Zrotation
								End Site
								{
									OFFSET 0.000000 0.000000 0.000000
								}
							}
						}
					}
					JOINT LeftShoulder
					{
						OFFSET 8.476499 7.247704 -3.868750
						CHANNELS 3 Xrotation Yrotation Zrotation
						JOINT LeftShoulder_split
						{
							OFFSET 8.476499 7.247704 -3.868750
							CHANNELS 3 Xrotation Yrotation Zrotation
							JOINT LeftArm
							{
								OFFSET 9.308998 -2.777710 0.208600
								CHANNELS 3 Xrotation Yrotation Zrotation
								JOINT LeftForeArm
								{
									OFFSET 29.972298 0.000000 0.000000
									CHANNELS 3 Xrotation Yrotation Zrotation
									JOINT LeftHand
									{
										OFFSET 26.026505 0.000000 0.000000
										CHANNELS 3 Xrotation Yrotation Zrotation
										JOINT LeftHandThumb1
										{
											OFFSET 12.240501 -7.147949 9.207150
											CHANNELS 3 Xrotation Yrotation Zrotation
											JOINT LeftHandThumb2
											{
												OFFSET 4.138618 -2.389435 2.389433
												CHANNELS 3 Xrotation Yrotation Zrotation
												JOINT LeftHandThumb3
												{
													OFFSET 2.726913 -1.574387 1.574386
													CHANNELS 3 Xrotation Yrotation Zrotation
													JOINT LeftHandThumb4
													{
														OFFSET 3.941010 -2.275345 2.275342
														CHANNELS 3 Xrotation Yrotation Zrotation
														End Site
														{
															OFFSET 0.000000 0.000000 0.000000
														}
													}
												}
											}
										}
										JOINT LeftHandIndex1
										{
											OFFSET 24.424698 -1.985611 5.953459
											CHANNELS 3 Xrotation Yrotation Zrotation
											JOINT LeftHandIndex2
											{
												OFFSET 6.426697 0.000000 0.000000
												CHANNELS 3 Xrotation Yrotation Zrotation
												JOINT LeftHandIndex3
												{
													OFFSET 5.337898 0.000000 0.000000
													CHANNELS 3 Xrotation Yrotation Zrotation
													JOINT LeftHandIndex4
													{
														OFFSET 4.409401 0.000000 0.000000
														CHANNELS 3 Xrotation Yrotation Zrotation
														End Site
														{
															OFFSET 0.000000 0.000000 0.000000
														}
													}
												}
											}
										}
										JOINT LeftHandMiddle1
										{
											OFFSET 23.810104 0.000000 0.000000
											CHANNELS 3 Xrotation Yrotation Zrotation
											JOINT LeftHandMiddle2
											{
												OFFSET 7.176498 0.000000 0.000000
												CHANNELS 3 Xrotation Yrotation Zrotation
												JOINT LeftHandMiddle3
												{
													OFFSET 6.774902 0.000000 0.000000
													CHANNELS 3 Xrotation Yrotation Zrotation
													JOINT LeftHandMiddle4
													{
														OFFSET 5.403328 0.000000 0.000000
														CHANNELS 3 Xrotation Yrotation Zrotation
														End Site
														{
															OFFSET 0.000000 0.000000 0.000000
														}
													}
												}
											}
										}
										JOINT LeftHandRing1
										{
											OFFSET 22.908401 -0.839279 -6.020567
											CHANNELS 3 Xrotation Yrotation Zrotation
											JOINT LeftHandRing2
											{
												OFFSET 6.337502 0.000000 0.000000
												CHANNELS 3 Xrotation Yrotation Zrotation
												JOINT LeftHandRing3
												{
													OFFSET 5.779297 0.000000 0.000000
													CHANNELS 3 Xrotation Yrotation Zrotation
													JOINT LeftHandRing4
													{
														OFFSET 4.965698 0.000000 0.000000
														CHANNELS 3 Xrotation Yrotation Zrotation
														End Site
														{
															OFFSET 0.000000 0.000000 0.000000
														}
													}
												}
											}
										}
										JOINT LeftHandPinky1
										{
											OFFSET 20.037003 -1.530319 -10.950146
											CHANNELS 3 Xrotation Yrotation Zrotation
											JOINT LeftHandPinky2
											{
												OFFSET 5.254700 0.000000 0.000000
												CHANNELS 3 Xrotation Yrotation Zrotation
												JOINT LeftHandPinky3
												{
													OFFSET 4.810204 0.000000 0.000000
													CHANNELS 3 Xrotation Yrotation Zrotation
													JOINT LeftHandPinky4
													{
														OFFSET 3.647202 0.000000 0.000000
														CHANNELS 3 Xrotation Yrotation Zrotation
														End Site
														{
															OFFSET 0.000000 0.000000 0.000000
														}
													}
												}
											}
										}
									}
								}
							}
						}
					}
					JOINT RightShoulder
					{
						OFFSET -7.570500 7.247704 -3.868750
						CHANNELS 3 Xrotation Yrotation Zrotation
						JOINT RightShoulder_split
						{
							OFFSET -7.570500 7.247704 -3.868750
							CHANNELS 3 Xrotation Yrotation Zrotation
							JOINT RightArm
							{
								OFFSET -9.308998 -2.777710 0.208500
								CHANNELS 3 Xrotation Yrotation Zrotation
								JOINT RightForeArm
								{
									OFFSET -29.972300 0.000000 0.000000
									CHANNELS 3 Xrotation Yrotation Zrotation
									JOINT RightHand
									{
										OFFSET -26.026505 0.000000 0.000000
										CHANNELS 3 Xrotation Yrotation Zrotation
										JOINT RightHandThumb1
										{
											OFFSET -12.240601 -7.148026 9.207092
											CHANNELS 3 Xrotation Yrotation Zrotation
											JOINT RightHandThumb2
											{
												OFFSET -4.138618 -2.389435 2.389433
												CHANNELS 3 Xrotation Yrotation Zrotation
												JOINT RightHandThumb3
												{
													OFFSET -2.726974 -1.574417 1.574421
													CHANNELS 3 Xrotation Yrotation Zrotation
													JOINT RightHandThumb4
													{
														OFFSET -3.941010 -2.275345 2.275343
														CHANNELS 3 Xrotation Yrotation Zrotation
														End Site
														{
															OFFSET 0.000000 0.000000 0.000000
														}
													}
												}
											}
										}
										JOINT RightHandIndex1
										{
											OFFSET -24.424698 -1.985657 5.953444
											CHANNELS 3 Xrotation Yrotation Zrotation
											JOINT RightHandIndex2
											{
												OFFSET -6.426697 0.000000 0.000000
												CHANNELS 3 Xrotation Yrotation Zrotation
												JOINT RightHandIndex3
												{
													OFFSET -5.337898 0.000000 0.000000
													CHANNELS 3 Xrotation Yrotation Zrotation
													JOINT RightHandIndex4
													{
														OFFSET -4.409401 0.000000 0.000000
														CHANNELS 3 Xrotation Yrotation Zrotation
														End Site
														{
															OFFSET 0.000000 0.000000 0.000000
														}
													}
												}
											}
										}
										JOINT RightHandMiddle1
										{
											OFFSET -23.810097 0.000000 0.000000
											CHANNELS 3 Xrotation Yrotation Zrotation
											JOINT RightHandMiddle2
											{
												OFFSET -7.176498 0.000000 0.000000
												CHANNELS 3 Xrotation Yrotation Zrotation
												JOINT RightHandMiddle3
												{
													OFFSET -6.774902 0.000000 0.000000
													CHANNELS 3 Xrotation Yrotation Zrotation
													JOINT RightHandMiddle4
													{
														OFFSET -5.403328 0.000000 0.000000
														CHANNELS 3 Xrotation Yrotation Zrotation
														End Site
														{
															OFFSET 0.000000 0.000000 0.000000
														}
													}
												}
											}
										}
										JOINT RightHandRing1
										{
											OFFSET -22.908302 -0.839325 -6.020576
											CHANNELS 3 Xrotation Yrotation Zrotation
											JOINT RightHandRing2
											{
												OFFSET -6.337502 0.000000 0.000000
												CHANNELS 3 Xrotation Yrotation Zrotation
												JOINT RightHandRing3
												{
													OFFSET -5.779297 0.000000 0.000000
													CHANNELS 3 Xrotation Yrotation Zrotation
													JOINT RightHandRing4
													{
														OFFSET -4.965698 0.000000 0.000000
														CHANNELS 3 Xrotation Yrotation Zrotation
														End Site
														{
															OFFSET 0.000000 0.000000 0.000000
														}
													}
												}
											}
										}
										JOINT RightHandPinky1
										{
											OFFSET -20.037003 -1.530334 -10.950259
											CHANNELS 3 Xrotation Yrotation Zrotation
											JOINT RightHandPinky2
											{
												OFFSET -5.254700 0.000000 0.000000
												CHANNELS 3 Xrotation Yrotation Zrotation
												JOINT RightHandPinky3
												{
													OFFSET -4.810204 0.000000 0.000000
													CHANNELS 3 Xrotation Yrotation Zrotation
													JOINT RightHandPinky4
													{
														OFFSET -3.647202 0.000000 0.000000
														CHANNELS 3 Xrotation Yrotation Zrotation
														End Site
														{
															OFFSET 0.000000 0.000000 0.000000
														}
													}
												}
											}
										}
									}
								}
							}
						}
					}
				}
			}
		}
	}
	JOINT LeftUpLeg
	{
		OFFSET 15.427100 -6.655098 0.678600
		CHANNELS 3 Xrotation Yrotation Zrotation
		JOINT LeftLeg
		{
			OFFSET 4.081073 -39.591068 13.024000
			CHANNELS 3 Xrotation Yrotation Zrotation
			JOINT LeftFoot
			{
				OFFSET -4.081074 -37.707932 -15.979700
				CHANNELS 3 Xrotation Yrotation Zrotation
				JOINT LeftToeBase
				{
					OFFSET 5.346399 -15.068900 20.645000
					CHANNELS 3 Xrotation Yrotation Zrotation
					JOINT LeftToe_End
					{
						OFFSET 2.754700 0.931300 11.300900
						CHANNELS 3 Xrotation Yrotation Zrotation
						End Site
						{
							OFFSET 0.000000 0.000000 0.000000
						}
					}
				}
			}
		}
	}
	JOINT RightUpLeg
	{
		OFFSET -15.569500 -6.655098 0.678600
		CHANNELS 3 Xrotation Yrotation Zrotation
		JOINT RightLeg
		{
			OFFSET -4.081825 -39.591045 13.023800
			CHANNELS 3 Xrotation Yrotation Zrotation
			JOINT RightFoot
			{
				OFFSET 4.081824 -37.707954 -15.979600
				CHANNELS 3 Xrotation Yrotation Zrotation
				JOINT RightToeBase
				{
					OFFSET -5.346400 -15.068900 20.645000
					CHANNELS 3 Xrotation Yrotation Zrotation
					JOINT RightToe_End
					{
						OFFSET -2.754700 0.931300 11.300900
						CHANNELS 3 Xrotation Yrotation Zrotation
						End Site
						{
							OFFSET 0.000000 0.000000 0.000000
						}
					}
				}
			}
		}
	}
}
MOTION
Frames: 4
Frame Time: 0.016667
56.219215 85.620491 25.161591 -10.125788 -57.508998 -11.346496 9.113565 8.866183 0.327536 2.556080 17.404589 -2.385636 0.000000 0.000000 0.000000 3.099508 13.576344 -1.746531 -0.834492 -4.108942 0.255298 1.539940 -45.055937 4.111455 0.000000 0.000000 -0.000000 -6.510688 -24.283962 -29.301515 0.000000 0.000000 0.000000 -16.491705 27.629864 -48.402771 0.000011 -37.042346 0.000024 20.414554 12.547359 -11.679948 -0.367419 1.022224 8.846103 11.332617 25.661873 5.956440 -1.978604 11.931653 20.214295 -0.000002 -0.000002 -0.000002 -3.147029 -1.008770 -32.685430 0.795783 2.949878 -30.188876 0.772659 2.909792 -29.736181 0.000001 -0.000000 -0.000001 1.080596 5.663171 -36.569994 0.703196 2.784831 -28.337840 0.746035 2.862746 -29.207497 0.000001 0.000002 -0.000000 2.638192 7.725027 -36.880453 0.871336 3.075886 -31.625890 0.916174 3.147422 -32.452076 0.000000 -0.000001 0.000000 4.773548 10.152477 -39.332071 0.944672 3.191739 -32.967288 0.836441 3.018571 -30.969546 -0.000000 0.000002 -0.000000 16.094116 -29.062588 21.606086 0.000000 0.000000 0.000000 17.231241 -22.622070 41.644814 0.000015 113.407512 -0.000020 50.459027 7.307193 26.799253 11.446980 0.444937 -2.639153 0.868416 -5.095140 -5.270572 -19.194705 12.675465 -8.491943 -0.000000 -0.000001 0.000001 -1.101639 2.714065 12.099576 0.231086 -1.450247 18.106174 0.006200 -0.240490 2.953402 -0.000001 0.000000 0.000000 -0.590502 -0.253857 13.946824 0.529558 -2.158733 27.563006 0.105623 -0.987240 12.212447 0.000000 0.000001 -0.000001 0.152618 -3.304650 16.160598 1.052583 -2.950882 39.255925 0.158915 -1.207463 14.995066 -0.000004 -0.000002 -0.000003 1.396632 -6.662528 20.820611 0.310314 -1.673171 21.012852 0.040592 -0.614179 7.561561 0.000003 -0.000000 -0.000000 -11.767786 12.814853 6.941969 41.045564 -9.929699 1.009736 -25.447917 14.984269 3.265061 -3.379281 0.000020 0.000002 -0.000000 -0.000001 0.000000 -12.931888 16.382687 -19.148504 44.646078 -5.515957 -8.252583 23.161035 -3.976439 31.752559 -20.872693 -1.149505 11.912144 -0.000001 0.000001 -0.000000 
55.919823 85.130966 26.043503 -10.735350 -56.790277 -11.380508 9.624783 7.916257 -0.207967 2.662956 17.145947 -2.401210 0.000000 0.000000 0.000000 3.209017 13.582535 -1.840704 -0.835034 -4.107088 0.327522 1.616703 -45.330149 4.399502 -0.000001 0.000002 0.000000 -6.690964 -24.917025 -29.325745 0.000000 0.000000 0.000000 -17.150501 26.242821 -47.937727 -0.000004 -37.261390 -0.000003 18.651155 12.125979 -10.193074 -0.303165 1.156291 8.901300 11.336635 25.654604 5.977711 -1.941927 11.914826 20.241296 0.000002 -0.000002 0.000000 -3.164684 -0.956356 -33.003563 0.813129 2.979429 -30.524057 0.789480 2.939010 -30.065806 0.000000 -0.000000 0.000000 1.100524 5.692202 -36.934637 0.718684 2.813292 -28.654822 0.762345 2.891690 -29.532478 -0.000001 -0.000001 0.000000 2.669909 7.741949 -37.250957 0.890059 3.106046 -31.973222 0.935757 3.177957 -32.806983 0.000000 0.000003 0.000000 4.816357 10.146117 -39.734093 0.963084 3.219915 -33.296609 0.854410 3.048265 -31.309089 -0.000001 0.000001 -0.000001 16.288806 -29.166718 21.993790 0.000000 0.000000 0.000000 17.892154 -24.268789 42.118741 0.000063 113.885461 -0.000053 41.063821 5.287840 26.351237 11.448282 0.442795 -2.640263 0.869871 -5.099390 -5.271799 -19.191619 12.672140 -8.493073 0.000002 -0.000001 0.000005 -1.117754 2.690267 12.294183 0.236137 -1.465558 18.304386 0.007050 -0.256445 3.149592 -0.000000 0.000001 -0.000000 -0.596857 -0.274210 14.142326 0.537007 -2.172928 27.760242 0.109030 -1.002881 12.408874 0.000000 -0.000000 0.000001 0.155902 -3.319392 16.357173 1.061201 -2.961382 39.422950 0.162440 -1.220560 15.161698 0.000003 0.000000 -0.000001 1.410544 -6.670704 21.018335 0.316092 -1.688129 21.209797 0.042717 -0.630036 7.757955 0.000001 0.000000 -0.000000 -10.868873 12.854679 5.642242 41.781865 -10.506118 1.311916 -26.601775 15.219668 4.187496 -3.382242 -0.000035 -0.000004 -0.000000 0.000001 -0.000000 -15.046029 18.208279 -17.268656 48.143650 -4.797634 -8.425130 23.169175 -1.093750 28.226223 -18.971991 -2.594001 17.138468 -0.000001 0.000000 -0.000000 
55.635223 84.802902 27.032681 -11.205570 -55.849258 -11.419865 10.089458 6.849838 -0.528353 2.778478 16.848639 -2.408985 0.000000 0.000000 0.000000 3.327782 13.548339 -1.925066 -0.836522 -4.091354 0.390945 1.663307 -45.506600 4.655206 0.000000 0.000000 -0.000000 -6.858138 -25.585236 -29.281240 0.000000 0.000000 0.000000 -17.849559 24.629997 -47.582028 0.000005 -37.102366 -0.000010 17.190213 11.684762 -8.623615 -0.239669 1.289013 8.955648 11.340593 25.647453 5.998809 -1.905604 11.898205 20.267975 -0.000002 0.000003 0.000003 -3.181887 -0.904416 -33.318431 0.830449 3.008591 -30.855735 0.806284 2.967809 -30.392043 -0.000001 -0.000002 0.000000 1.120395 5.720795 -37.295531 0.734145 2.841401 -28.968512 0.778655 2.920258 -29.854101 -0.000001 0.000002 -0.000000 2.701348 7.758506 -37.617683 0.908766 3.135778 -32.316931 0.955315 3.208061 -33.158212 -0.000000 0.000000 -0.000000 4.858553 10.139622 -40.131941 0.981473 3.247685 -33.622511 0.872360 3.077550 -31.645130 -0.000001 -0.000001 0.000001 16.428056 -29.286150 22.283888 0.000000 0.000000 0.000000 18.343098 -25.660561 42.553048 -0.000020 114.043983 0.000006 34.092507 4.326350 26.246916 11.449755 0.440238 -2.641562 0.872412 -5.108718 -5.273695 -19.187128 12.663222 -8.495782 -0.000000 0.000000 0.000002 -1.093843 2.717386 12.021015 0.229020 -1.443877 18.024104 0.005862 -0.234007 2.873822 0.000003 0.000000 0.000001 -0.586986 -0.249510 13.867926 0.526563 -2.152984 27.483366 0.104262 -0.980965 12.133570 -0.000001 -0.000000 -0.000001 0.150481 -3.295859 16.081650 1.039532 -2.934861 39.001524 0.153620 -1.187485 14.741252 0.000001 -0.000001 -0.000002 1.388039 -6.651371 20.741451 0.308004 -1.667116 20.933205 0.039743 -0.607804 7.482733 -0.000001 -0.000000 -0.000001 -9.899644 12.882636 4.526887 42.244778 -10.779880 1.592050 -27.547377 14.911418 4.955156 -3.374966 -0.000010 -0.000007 0.000000 -0.000000 0.000000 -17.104421 19.563977 -14.993725 51.015065 -4.188138 -8.136425 22.247688 2.708465 24.018154 -23.748629 -5.549271 16.932000 -0.000001 -0.000002 0.000000 
55.377674 84.584717 28.147945 -11.426168 -54.629533 -11.420366 10.450109 5.610872 -0.599676 2.886332 16.500533 -2.402979 0.000000 0.000000 0.000000 3.439223 13.460947 -1.993053 -0.825260 -4.058136 0.451981 1.734942 -45.565227 4.903149 -0.000000 -0.000001 0.000001 -7.018226 -26.326413 -29.169300 0.000000 0.000000 0.000000 -18.434954 23.003975 -47.374011 0.000002 -36.923258 0.000007 16.093155 11.349596 -7.118681 -0.177024 1.420202 9.009176 11.344522 25.640334 6.019594 -1.869737 11.881844 20.294372 0.000000 0.000000 0.000003 -3.198564 -0.852995 -33.629331 0.847740 3.037287 -31.183314 0.823040 2.996164 -30.714247 -0.000003 0.000002 -0.000001 1.140226 5.748955 -37.651954 0.749571 2.869056 -29.278323 0.794916 2.948378 -30.171753 0.000001 -0.000001 0.000000 2.732486 7.774693 -37.979834 0.927437 3.165046 -32.656439 0.974818 3.237670 -33.505090 -0.000001 0.000000 -0.000000 4.900102 10.132995 -40.524865 0.999781 3.275006 -33.944401 0.890265 3.106364 -31.977016 0.000001 -0.000001 0.000000 16.511894 -29.414705 22.476727 0.000000 0.000000 0.000000 18.832085 -26.862733 43.040505 0.000015 114.021327 -0.000031 28.272822 3.883413 26.345216 11.451390 0.436226 -2.643294 0.877849 -5.126588 -5.276862 -19.179931 12.645103 -8.501207 0.000002 -0.000002 0.000003 -1.053550 2.761292 11.566176 0.217390 -1.407668 17.556982 0.004150 -0.196634 2.414563 0.000001 0.000000 -0.000000 -0.570155 -0.209048 13.411053 0.509375 -2.119641 27.022387 0.096561 -0.944445 11.675302 0.000000 -0.000001 -0.000001 0.142049 -3.257690 15.622895 1.001910 -2.887842 38.260725 0.138669 -1.129171 14.002060 -0.000002 -0.000000 0.000001 1.350203 -6.617240 20.280708 0.294742 -1.632055 20.472678 0.035027 -0.570779 7.024562 0.000000 0.000000 -0.000001 -9.005588 12.875011 3.690153 42.563857 -10.794205 1.799723 -28.340950 14.013471 5.611765 -3.339839 0.000018 0.000004 -0.000000 -0.000000 -0.000000 -19.127222 20.381756 -12.454459 53.230150 -3.930335 -7.564224 21.226396 7.229308 19.737896 -30.343242 -7.201658 14.399688 0.000001 -0.000000 0.000000 
